<?xml version="1.0" standalone="no"?>
<!DOCTYPE svg PUBLIC "-//W3C//DTD SVG 20010904//EN"
 "http://www.w3.org/TR/2001/REC-SVG-20010904/DTD/svg10.dtd">
<svg version="1.0" xmlns="http://www.w3.org/2000/svg"
 width="500.000000pt" height="500.000000pt" viewBox="0 0 500.000000 500.000000"
 preserveAspectRatio="xMidYMid meet">
<metadata>
Created by potrace 1.14, written by Peter Selinger 2001-2017
</metadata>
<g transform="translate(0.000000,500.000000) scale(0.100000,-0.100000)"
fill="#000000" stroke="none">
<path d="M3010 4759 c5 -29 -1 -39 -21 -39 -14 0 -19 5 -16 14 8 20 -30 31
-48 16 -8 -7 -15 -9 -15 -5 0 4 -7 2 -15 -5 -8 -7 -15 -10 -15 -6 0 4 -17 -2
-37 -13 -27 -13 -45 -16 -60 -10 -14 5 -23 5 -23 -2 0 -5 -12 -7 -27 -3 -22 4
-25 3 -13 -5 13 -9 13 -11 -2 -11 -10 0 -19 -4 -19 -10 -6 -46 -19 -59 -51
-49 -27 7 -34 4 -62 -24 -17 -17 -37 -30 -43 -29 -17 4 -55 -17 -49 -27 8 -13
-51 -71 -84 -82 -29 -11 -48 -45 -42 -76 2 -7 -6 -13 -18 -13 -18 0 -19 -3
-10 -20 9 -18 6 -22 -32 -37 -24 -10 -47 -16 -52 -15 -4 2 -14 -5 -21 -14 -8
-12 -14 -14 -19 -6 -5 9 -14 7 -31 -4 -20 -13 -30 -13 -66 -3 -32 10 -44 10
-46 2 -3 -7 -14 -24 -25 -39 -17 -21 -23 -23 -29 -11 -6 9 -25 15 -55 15 -25
1 -52 6 -59 12 -18 15 -74 8 -85 -10 -7 -12 -13 -10 -34 9 -23 22 -26 22 -48
7 -12 -9 -33 -16 -45 -16 -14 0 -23 -6 -23 -16 0 -8 -4 -13 -9 -10 -5 3 -20
-4 -35 -15 -14 -11 -30 -18 -35 -14 -5 3 -13 0 -16 -5 -4 -6 -17 -10 -28 -9
-70 5 -113 -15 -100 -47 3 -8 -3 -23 -15 -34 -20 -19 -20 -19 -35 3 l-15 22
-24 -24 c-16 -16 -19 -25 -10 -28 6 -3 12 -9 12 -14 0 -6 -5 -7 -10 -4 -12 8
-63 -30 -71 -53 -4 -9 -2 -27 2 -40 9 -23 7 -23 -32 -21 -43 4 -73 -19 -63
-46 6 -13 -15 -37 -52 -62 -13 -8 -24 -23 -24 -33 0 -9 -9 -27 -20 -40 -23
-27 -53 -117 -43 -133 4 -6 1 -7 -6 -2 -9 5 -12 1 -10 -11 2 -11 -2 -29 -9
-41 -7 -14 -9 -23 -3 -23 6 0 3 -16 -5 -35 -8 -20 -21 -75 -30 -122 -8 -48
-19 -92 -24 -99 -7 -7 -5 -24 5 -47 21 -52 19 -64 -15 -82 -30 -16 -42 -56
-20 -70 5 -3 9 -16 8 -28 -1 -12 7 -44 17 -71 15 -39 16 -54 8 -77 -6 -16 -8
-29 -4 -29 4 0 7 -15 6 -34 0 -19 2 -33 6 -30 10 6 21 -28 12 -35 -5 -3 -10
-22 -11 -41 -2 -19 -12 -42 -22 -50 -16 -13 -18 -28 -16 -110 2 -52 6 -103 9
-112 15 -38 16 -48 6 -48 -6 0 -8 -9 -4 -19 4 -14 0 -21 -15 -26 -21 -7 -23
-32 -2 -28 5 1 12 -7 15 -18 4 -16 3 -18 -9 -8 -22 18 -18 -14 4 -34 17 -16
18 -31 10 -119 -2 -15 -9 -33 -15 -39 -10 -10 -9 -16 4 -31 9 -10 13 -18 8
-18 -4 0 -1 -8 6 -17 10 -11 10 -14 2 -9 -8 4 -13 2 -13 -8 0 -8 -3 -23 -7
-33 -3 -10 -3 -15 2 -11 4 4 14 3 21 -3 10 -8 11 -15 1 -30 -8 -14 -9 -21 0
-30 7 -7 8 -21 3 -40 -5 -18 -5 -27 1 -24 17 11 9 -7 -11 -23 -17 -15 -18 -23
-11 -56 6 -23 6 -48 0 -63 -5 -14 -7 -29 -4 -34 4 -5 2 -16 -3 -26 -7 -12 -5
-21 11 -33 20 -16 16 -47 -4 -34 -6 3 -5 -4 3 -16 11 -19 11 -23 0 -27 -10 -4
-10 -10 3 -29 8 -13 11 -24 7 -24 -5 0 -21 -9 -35 -20 -24 -19 -24 -21 -10
-62 8 -24 18 -45 23 -48 4 -3 10 -25 12 -50 2 -34 0 -45 -12 -45 -30 0 -17
-62 26 -123 15 -19 15 -22 1 -17 -8 4 -18 2 -21 -4 -4 -5 3 -13 14 -16 17 -5
19 -10 9 -21 -9 -11 -9 -14 0 -14 7 0 10 -4 6 -9 -3 -5 -1 -12 4 -16 5 -3 8
-14 6 -25 -2 -11 0 -20 4 -20 5 0 11 -15 14 -32 3 -18 8 -42 10 -53 3 -11 6
-23 6 -27 1 -5 24 -8 52 -8 46 0 50 -2 47 -22 -2 -18 2 -23 22 -25 79 -6 96
-9 107 -23 6 -8 9 -18 7 -22 -3 -5 0 -8 5 -8 6 0 11 4 11 9 0 5 18 7 39 5 28
-3 49 1 73 16 18 11 40 20 48 20 9 0 24 9 33 21 10 11 23 19 30 16 20 -6 41
23 43 60 0 19 6 39 11 44 16 16 3 49 -18 49 -22 0 -23 4 -9 31 9 15 7 21 -5
25 -17 7 -21 74 -5 90 12 12 -6 64 -21 64 -11 0 0 28 22 61 20 28 15 69 -7 69
-8 0 -14 3 -15 8 0 4 -2 17 -5 29 -2 12 1 25 6 28 17 10 11 51 -9 69 -11 10
-18 23 -16 29 14 41 13 83 -2 99 -15 17 -15 21 1 55 11 23 13 38 7 42 -6 4 -8
20 -6 36 12 77 10 99 -10 92 -22 -9 -28 11 -6 22 14 8 19 20 17 46 -1 25 2 34
11 30 18 -6 16 10 -2 25 -9 7 -14 19 -11 26 3 8 -1 19 -8 26 -7 7 -11 19 -8
26 2 7 -2 19 -9 28 -8 10 -9 18 -2 25 8 8 7 21 -3 46 -15 34 -14 34 7 28 23
-8 39 7 39 39 0 11 -5 16 -14 13 -11 -5 -13 0 -7 21 5 15 5 36 1 47 -4 11 -3
25 1 31 6 8 4 14 -6 18 -8 3 -15 10 -15 16 0 6 6 8 13 4 9 -5 9 -4 0 6 -10 11
-10 17 3 31 13 15 20 16 42 6 15 -6 34 -17 43 -24 13 -11 20 -9 43 12 27 25
34 25 89 10 23 -6 31 -3 42 12 12 17 21 19 52 13 21 -4 50 -12 65 -18 21 -9
31 -8 50 6 13 10 33 17 45 16 13 -1 28 5 34 12 15 18 47 17 79 -1 41 -23 70
-19 70 10 0 14 4 25 9 25 5 0 16 3 24 6 10 4 15 -1 14 -13 -2 -13 6 -19 31
-21 19 -2 32 1 32 8 0 7 7 10 15 7 8 -4 17 -2 20 3 9 15 25 12 25 -5 0 -8 6
-16 13 -17 6 0 19 -2 27 -3 8 -1 24 9 36 21 22 24 64 29 64 7 0 -22 58 -12 64
10 3 13 10 17 20 14 8 -3 18 -1 22 5 4 7 3 8 -4 4 -7 -4 -12 -2 -12 3 0 19 60
17 72 -2 4 -7 8 -9 9 -4 1 4 3 12 4 17 1 6 3 13 4 18 1 4 5 1 10 -7 12 -19 43
-6 39 16 -2 10 2 18 9 18 7 0 23 9 35 20 13 11 27 18 31 17 5 -1 6 1 3 6 -13
21 -13 92 0 103 16 13 2 49 -21 49 -25 0 -25 17 0 74 14 31 25 63 25 70 0 13
-71 48 -88 44 -4 -1 -17 3 -29 10 -17 9 -28 10 -43 2 -17 -9 -20 -8 -20 12 0
13 -9 29 -21 36 -17 11 -25 10 -52 -6 -46 -27 -97 -36 -97 -17 0 8 -6 15 -12
16 -24 2 -83 -2 -113 -8 -16 -3 -47 -5 -67 -5 -22 0 -39 -6 -42 -14 -6 -15
-38 -19 -50 -6 -4 4 -11 7 -14 7 -4 1 -18 7 -31 14 -50 28 -81 31 -94 10 -15
-25 -43 -24 -57 1 -9 17 -17 19 -53 14 -23 -4 -55 -13 -71 -22 -33 -16 -196
-25 -196 -11 0 5 -7 9 -15 9 -8 0 -15 5 -15 11 0 8 -5 8 -15 -1 -8 -7 -15 -9
-15 -5 0 4 -7 2 -15 -5 -9 -7 -15 -8 -15 -2 0 5 6 12 13 15 7 2 13 17 15 31 1
15 6 35 11 44 5 9 8 44 6 77 -2 33 1 65 7 72 6 7 5 14 -2 18 -13 8 -13 26 1
23 7 -2 13 15 16 40 3 32 0 44 -12 48 -11 4 -14 13 -9 28 10 32 62 94 85 101
13 4 17 11 12 16 -15 15 -2 79 18 90 15 8 21 6 26 -7 5 -15 8 -15 17 -2 15 20
53 39 90 45 17 3 36 6 41 6 6 1 10 -8 9 -20 -1 -26 30 -37 50 -18 7 8 15 13
17 11 2 -2 25 -6 50 -10 40 -6 49 -4 72 18 28 26 52 27 94 5 18 -10 29 -10 49
0 22 10 26 9 21 -3 -8 -20 49 -41 60 -22 10 17 70 37 88 29 19 -7 46 15 43 35
-2 8 3 17 11 20 9 3 11 0 7 -9 -4 -8 2 -3 13 10 12 13 21 20 21 15 0 -14 87
80 102 111 10 19 12 37 7 50 -12 30 -10 38 5 32 8 -3 22 3 32 15 18 19 18 20
1 33 -37 27 -10 53 37 35 21 -8 32 -7 42 1 8 6 14 8 14 4 0 -4 6 -2 14 4 8 7
36 11 63 9 45 -3 48 -2 49 22 0 14 1 31 2 38 2 14 42 17 42 3 0 -19 36 -16 70
6 41 26 44 29 71 66 12 16 27 26 34 23 17 -6 33 14 30 37 -3 14 15 23 29 15 2
-2 13 6 25 16 12 11 21 15 21 10 0 -5 7 4 15 20 8 15 15 36 15 46 0 10 7 20
15 24 11 4 15 17 13 48 -2 32 1 43 12 43 8 0 15 7 15 15 0 8 10 16 22 18 22 3
39 34 29 51 -3 5 1 30 9 57 11 38 12 50 2 56 -7 4 -18 12 -26 17 -8 5 -17 29
-20 53 l-6 43 -55 6 c-30 4 -74 10 -98 14 -34 6 -43 5 -42 -6z"/>
<path d="M3060 2329 c0 -5 5 -7 10 -4 6 3 10 8 10 11 0 2 -4 4 -10 4 -5 0 -10
-5 -10 -11z"/>
<path d="M3030 2308 c0 -5 -7 -8 -15 -4 -8 3 -14 2 -14 -2 4 -22 -3 -32 -21
-32 -11 0 -20 -6 -20 -13 0 -8 -8 -21 -18 -30 -16 -14 -19 -14 -42 3 -32 25
-44 25 -78 0 -15 -11 -37 -21 -49 -23 -12 -2 -26 -6 -29 -10 -4 -4 -14 -7 -22
-7 -26 0 -82 -50 -82 -73 0 -12 -14 -37 -30 -56 -17 -19 -33 -45 -36 -58 -8
-29 -51 -74 -89 -91 -15 -7 -25 -15 -22 -18 3 -4 -3 -15 -14 -27 -23 -25 -25
-47 -4 -47 21 0 20 -59 -1 -75 -15 -10 -15 -13 1 -28 9 -9 15 -25 13 -34 -1
-10 1 -24 6 -31 5 -8 2 -18 -9 -26 -9 -6 -16 -19 -15 -27 4 -28 0 -38 -14 -33
-8 3 -16 -2 -19 -13 -4 -15 -4 -35 2 -120 1 -7 9 -21 19 -31 56 -59 56 -58 32
-82 -20 -20 -21 -23 -5 -40 10 -11 27 -18 39 -17 12 1 20 -3 19 -10 -2 -7 -4
-18 -5 -24 -2 -6 6 -16 17 -22 57 -34 94 -109 72 -144 -8 -12 -4 -15 26 -17
11 -1 22 -9 59 -43 39 -37 56 -61 62 -85 7 -31 17 -33 85 -17 30 7 47 7 55 -1
5 -5 23 -10 39 -10 20 0 30 -6 34 -20 3 -11 12 -20 21 -20 8 0 23 -7 33 -16
13 -12 22 -13 38 -5 11 6 36 8 58 4 21 -3 48 -6 61 -6 12 1 22 -4 22 -9 0 -6
6 -8 14 -5 7 3 18 1 24 -5 8 -8 13 -3 18 15 3 15 10 24 15 21 5 -3 12 1 15 10
3 8 12 12 20 9 22 -8 84 6 84 20 0 8 24 12 77 12 62 0 81 3 96 18 10 10 16 25
13 34 -5 11 -1 14 11 11 22 -5 51 23 44 43 -4 12 -2 12 13 0 15 -13 19 -13 27
0 5 8 9 10 9 5 0 -5 11 1 25 14 14 13 25 18 25 12 0 -22 45 -82 57 -77 7 2 15
0 18 -5 4 -6 -1 -10 -9 -10 -20 0 -21 -34 -1 -50 13 -10 19 -10 35 5 11 10 20
13 20 7 0 -6 25 -30 56 -54 51 -38 57 -41 69 -25 7 9 16 17 21 17 15 0 104 97
104 114 0 8 -4 26 -10 40 -5 15 -6 26 -1 26 5 0 -4 13 -20 29 -32 33 -36 49
-14 57 8 4 15 12 15 20 0 15 -34 37 -44 27 -3 -3 -6 8 -6 25 0 22 -5 32 -15
32 -8 0 -15 6 -15 14 0 8 -9 17 -19 21 -16 5 -19 13 -15 43 3 20 9 39 14 42
15 9 -1 50 -19 50 -10 0 -18 7 -18 15 0 8 4 12 9 9 13 -8 9 10 -7 32 -14 18
-21 74 -9 74 3 0 14 -5 24 -10 44 -24 42 52 -3 93 -17 15 -17 17 -2 17 14 0
16 5 11 28 -17 68 -17 78 -2 91 15 12 15 15 -1 26 -16 12 -14 15 15 32 18 11
30 22 27 24 -2 3 -6 20 -7 38 -1 18 -8 35 -15 38 -10 4 -9 8 2 20 19 19 19 53
0 53 -22 0 -18 12 15 48 17 18 30 40 30 48 0 8 7 14 15 14 8 0 15 4 15 9 0 5
-7 14 -15 21 -8 7 -15 23 -15 36 0 14 -5 23 -12 21 -7 -1 -13 9 -14 22 -1 14
-8 29 -15 35 -8 6 -14 21 -13 33 1 15 -3 20 -14 16 -8 -4 -19 1 -24 10 -7 13
-20 16 -60 12 -28 -3 -59 -12 -68 -20 -9 -8 -26 -15 -37 -15 -12 0 -23 -6 -26
-14 -4 -9 -14 -12 -25 -9 -11 2 -23 0 -26 -6 -4 -6 -2 -11 4 -11 8 0 8 -6 0
-20 -8 -15 -8 -20 2 -20 8 -1 5 -7 -6 -15 -18 -14 -15 -19 9 -16 6 1 -1 -8
-15 -19 -22 -17 -21 -25 3 -21 4 1 7 -7 5 -16 -2 -12 3 -17 12 -15 10 1 8 -3
-5 -13 -18 -15 -21 -14 -38 7 -11 12 -31 23 -45 24 -25 1 -27 5 -27 42 0 48
-1 49 -43 57 -17 3 -46 14 -64 25 -17 10 -35 17 -39 14 -10 -6 -49 32 -49 46
0 6 -4 11 -10 11 -5 1 -16 2 -22 3 -7 1 -16 -2 -19 -7 -4 -5 -14 -5 -25 1 -20
10 -56 9 -115 -3 -31 -6 -39 -3 -51 14 -10 14 -21 19 -32 15 -9 -3 -16 -2 -16
3 0 6 -13 10 -30 11 -16 0 -30 -4 -30 -10z m20 -387 c0 -20 -4 -20 119 -6 34
4 47 1 56 -12 11 -15 17 -15 40 -5 26 12 31 10 61 -19 18 -18 33 -35 32 -38
-2 -18 3 -34 8 -28 4 3 19 0 35 -8 16 -9 32 -14 37 -13 11 4 67 -44 74 -64 4
-9 0 -22 -8 -28 -23 -20 -16 -36 29 -66 55 -38 58 -42 53 -86 -5 -43 -28 -80
-62 -103 -13 -8 -24 -23 -24 -31 0 -9 -18 -34 -41 -56 -29 -28 -42 -51 -47
-81 -5 -29 -14 -45 -30 -53 -12 -6 -19 -14 -15 -17 3 -4 -5 -7 -20 -7 -14 0
-29 -4 -32 -10 -9 -15 -25 -12 -25 5 0 18 -30 20 -54 2 -23 -17 -74 -10 -86
13 -10 19 -67 32 -76 18 -10 -15 -23 -8 -26 15 -3 21 -8 22 -71 20 -55 -1 -67
2 -63 13 6 15 -22 34 -41 27 -9 -3 -13 7 -13 35 0 41 -12 56 -63 82 -24 12
-27 19 -25 53 1 22 -3 42 -10 46 -8 4 -11 18 -8 32 25 114 33 130 75 144 12 4
20 9 17 13 -3 3 1 16 10 30 9 14 12 30 8 40 -7 16 -8 26 -5 56 0 8 18 16 41
20 22 3 40 11 40 17 0 5 5 7 11 3 6 -3 21 5 34 20 12 14 25 23 29 19 3 -3 6 1
6 10 0 10 7 17 15 17 8 0 15 -9 15 -19z"/>
</g>
</svg>
